<svg xmlns="http://www.w3.org/2000/svg" height="50mm" width="50mm" viewBox="0 0 177.16535 177.16535"><ellipse rx="88.184" ry="88.715" cy="88.64" cx="88.641" fill="#292929"/><path d="M171.5 59.51a84.386 84.386 0 0 1 5.939 31.178c0 47.861-39.767 86.675-88.804 86.675-49.035 0-88.803-38.814-88.803-86.675a84.615 84.615 0 0 1 6.52-32.638c.66 1.41 1.253 2.218 2.353 3.292.355 1.038.785 1.635 1.376 2.168-7.366 20.277-6.14 43.028 3.443 62.435 54.76-46.096 78.906 15.358 153.35-15.895 5.005-18.98 7.005-31.152-1.27-50.54h5.893z" fill="#202020"/><ellipse rx="7.237" ry="7.281" cy="40.65" cx="55.881" fill="#fff"/><ellipse rx="4.027" ry="4.051" cy="31.7" cx="60.102" fill="#fff"/><path d="M170.51 94.27c-.763 4.881-1.991 9.992-3.504 15.73-22.254 9.342-40.012 10.398-55.438 8.521a61.964 57.5 0 0 0-11.02 32.708 61.964 57.5 0 0 0 5.912 24.358c38.986-7.698 68.715-40.327 70.965-80.097a61.964 57.5 0 0 0-6.916-1.221z" fill="#131313"/></svg>