<svg xmlns="http://www.w3.org/2000/svg" height="50mm" width="50mm" viewBox="0 0 177.16535 177.16535"><g transform="translate(0 -875.2)"><ellipse rx="88.184" ry="88.715" cy="963.84" cx="88.641" fill="#d40000"/><path fill="#b10000" d="M171.5 934.71a84.386 84.386 0 0 1 5.939 31.178c0 47.861-39.767 86.675-88.804 86.675-49.035 0-88.803-38.814-88.803-86.675a84.615 84.615 0 0 1 6.52-32.638c.66 1.41 1.253 2.218 2.353 3.292.355 1.038.785 1.635 1.376 2.168-7.366 20.277-6.14 43.028 3.443 62.435 54.76-46.096 78.906 15.358 153.35-15.895 5.005-18.98 7.005-31.152-1.27-50.54h5.893z"/><ellipse rx="7.237" ry="7.281" cy="915.85" cx="55.881" fill="#fff"/><ellipse rx="4.027" ry="4.051" cy="906.9" cx="60.102" fill="#fff"/><path fill="#800" d="M170.51 969.47c-.763 4.881-1.991 9.992-3.504 15.73-22.254 9.342-40.012 10.398-55.438 8.521a61.964 57.5 0 0 0-11.02 32.707 61.964 57.5 0 0 0 5.912 24.36c38.986-7.699 68.715-40.329 70.965-80.099a61.964 57.5 0 0 0-6.916-1.22z"/></g></svg>